# xmcd
#
# Track frame offsets: 
#        150
#        25437
#        59265
#        96117
#        124575
#        146557
#        180892
#        209986
#        236345
#        264020
#
# Disc length: 3906 seconds
#
# Revision: 0
# Processed by: cddbd v1.5.2PL0 Copyright (c) Steve Scherf et al.
# Submitted via: ExactAudioCopy v0.99pb4
#
DISCID=850f400a
DTITLE=Harmonica Shah - Live At The Cove
DYEAR=2011
DGENRE=Blues
TTITLE0=Who's The Fool
TTITLE1=Mrs Obama's Boogie
TTITLE2=Woman,I Want You To Love Me
TTITLE3=Poor Boy
TTITLE4=Big Boss Lady
TTITLE5=Blues From A Lonesome Dirty Mountain
TTITLE6=Let Me Be Your Little Dog
TTITLE7=Billy Goat Blues
TTITLE8=Working Life Blues
TTITLE9=Last Night
EXTD=
EXTT0=
EXTT1=
EXTT2=
EXTT3=
EXTT4=
EXTT5=
EXTT6=
EXTT7=
EXTT8=
EXTT9=
PLAYORDER=
